# AST/ASF file generated using VICON BodyLanguage
# -----------------------------------------------
:version 1.10
:name VICON
:units
  mass 1.0
  length 0.45
  angle deg
:documentation
   .ast/.asf automatically generated from VICON data using
   VICON BodyBuilder and BodyLanguage model FoxedUp or BRILLIANT.MOD
:root
   order TX TY TZ RX RY RZ
   axis XYZ
   position 0 0 0  
   orientation 0 0 0 
:bonedata
  begin
     id 1 
     name lhipjoint
     direction 0.662698 -0.695252 0.27831 
     length 2.53073 
     axis 0 0 0  XYZ
  end
  begin
     id 2 
     name lfemur
     direction 0.34202 -0.939693 0  
     length 7.16147  
     axis 0 0 20  XYZ
    dof rx ry rz
    limits (-160.0 20.0)
           (-70.0 70.0)
           (-60.0 70.0)
  end
  begin
     id 3 
     name ltibia
     direction 0.34202 -0.939693 0   
     length 7.63967   
     axis 0 0 20   XYZ
    dof rx
    limits (-10.0 170.0)
  end
  begin
     id 4 
     name lfoot
     direction 0.0938457 -0.257721 0.961651   
     length 1.89793   
     axis -90 7.62852e-016 20   XYZ
    dof rx rz
    limits (-45.0 90.0)
           (-70.0 20.0)
  end
  begin
     id 5 
     name ltoes
     direction -0.00116841 -0.0030592 0.999995   
     length 0.955649   
     axis -90 7.62852e-016 20   XYZ
    dof rx
    limits (-90.0 20.0)
  end
  begin
     id 6 
     name rhipjoint
     direction -0.649445 -0.705948 0.282592   
     length 2.49238  
     axis 0 0 0  XYZ 
  end
  begin
     id 7 
     name rfemur
     direction -0.34202 -0.939693 0   
     length 6.90728   
     axis 0 0 -20   XYZ
    dof rx ry rz
    limits (-160.0 20.0)
           (-70.0 70.0)
           (-70.0 60.0)
  end
  begin
     id 8 
     name rtibia
     direction -0.34202 -0.939693 0   
     length 7.72868   
     axis 0 0 -20   XYZ
    dof rx
    limits (-10.0 170.0)
 end
 begin
     id 9 
     name rfoot
     direction -0.0920068 -0.252865 0.963117   
     length 1.97476  
     axis -90 -7.62852e-016 -20   XYZ
    dof rx rz
    limits (-45.0 90.0)
           (-20.0 70.0)
  end
  begin
     id 10 
     name rtoes
     direction 0.000391322 0.00230649 0.999997   
     length 0.992641   
     axis -90 -7.62852e-016 -20   XYZ
    dof rx
    limits (-90.0 20.0)
  end
  begin
     id 11 
     name lowerback
     direction -0.00875327 0.998321 -0.0572635   
     length 2.20024   
     axis 0 0 0   XYZ
    dof rx ry rz
    limits (-20.0 45.0)
           (-30.0 30.0)
           (-30.0 30.0)
  end
  begin
     id 12 
     name upperback
     direction 0.00753931 0.999972 -0.000360425   
     length 2.20538   
     axis 0 0 0   XYZ
    dof rx ry rz
    limits (-20.0 45.0)
           (-30.0 30.0)
           (-30.0 30.0)
  end
  begin
     id 13 
     name thorax
     direction 0.0117767 0.999601 0.0256663   
     length 2.21508   
     axis 0 0 0   XYZ
    dof rx ry rz
    limits (-20.0 45.0)
           (-30.0 30.0)
           (-30.0 30.0)
  end
  begin
     id 14 
     name lowerneck
     direction 0.060228 0.994909 0.0807986   
     length 1.7607   
     axis 0 0 0   XYZ
    dof rx ry rz
    limits (-20.0 45.0)
           (-30.0 30.0)
           (-30.0 30.0)
  end
  begin
     id 15 
     name upperneck
     direction -0.0563647 0.959594 -0.275685   
     length 1.75612   
     axis 0 0 0   XYZ
    dof rx ry rz
    limits (-20.0 45.0)
           (-30.0 30.0)
           (-30.0 30.0)
  end
  begin
     id 16
     name head
     direction -0.0161544 0.99458 -0.102714  
     length 1.79288  
     axis 0 0 0   XYZ
    dof rx ry rz
    limits (-20.0 45.0)
           (-30.0 30.0)
           (-30.0 30.0)
  end
  begin
     id 17 
     name lclavicle
     direction 0.93913 0.332189 -0.087669  
     length 3.52087  
     axis 0 0 0   XYZ
    dof ry rz
    limits (-20.0 10.0)
           (0.0 20.0)
  end
  begin
     id 18 
     name lhumerus
     direction 1 -4.48974e-011 -2.70836e-027   
     length 5.35289   
     axis -180 -30 -90   XYZ
    dof rx ry rz
    limits (-60.0 90.0)
           (-90.0 90.0)
           (-90.0 90.0)
  end
  begin
     id 19
     name lradius
     direction 1 -4.48961e-011 -9.76021e-027   
     length 3.27727   
     axis -180 -30 -90   XYZ
    dof rx
    limits (-10.0 170.0)
  end
  begin
     id 20
     name lwrist
     direction 1 -4.49103e-011 -2.23668e-026   
     length 1.63864   
     axis 1.44924e-014 90 90   XYZ
    dof ry
    limits (-180.0 0.0)
 end
  begin
     id 21 
     name lhand
     direction 1 3.0697e-005 0.000161777   
     length 0.54443   
     axis 2.85318e-014 90 90   XYZ
    dof rx rz
    limits (-90.0 90.0)
           (-45.0 45.0)
  end
  begin
     id 22 
     name lfingers
     direction 1 -4.49027e-011 -8.9447e-026   
     length 0.438912   
     axis 5.70628e-014 90 90   XYZ
    dof rx
    limits (0.0 90.0)
  end
  begin
     id 23
     name lthumb
     direction 0.707058 2.6516e-005 0.707156   
     length 0.630274   
     axis -90 45 -3.53137e-014   XYZ
    dof rx rz
    limits (-45.0 45.0)
           (-45.0 45.0)
  end
  begin
     id 24 
     name rclavicle
     direction -0.95274 0.284984 -0.105215   
     length 3.43401  
     axis 0 0 0   XYZ 
    dof ry rz
    limits (-10.0 20.0)
           (-20.0 0.0)
  end
  begin
     id 25 
     name rhumerus
     direction -0.999999 -0.000575019 -0.00106829  
     length 5.52077   
     axis -180 30 90   XYZ
    dof rx ry rz
    limits (-90.0 60.0)
           (-90.0 90.0)
           (-90.0 90.0)
  end
  begin
     id 26 
     name rradius
     direction -1 -4.4879e-011 -6.35415e-027   
     length 3.32364   
     axis -180 30 90   XYZ
    dof rx
    limits (-10.0 170.0)
  end
  begin
     id 27 
     name rwrist
     direction -1 -4.49048e-011 -9.98542e-027   
     length 1.66182   
     axis 6.32482e-015 -90 -90   XYZ
    dof ry
    limits (-180.0 0.0)
  end
  begin
     id 28
     name rhand
     direction -1 -4.48978e-011 -1.99771e-026   
     length 0.732235   
     axis 1.27479e-014 -90 -90   XYZ
    dof rx rz
    limits (-90.0 90.0)
           (-45.0 45.0)
  end
  begin
     id 29
     name rfingers
     direction -1 -4.49144e-011 -3.99245e-026   
     length 0.590347   
     axis 2.5496e-014 -90 -90   XYZ
    dof rx
    limits (0.0 90.0)
  end
  begin
     id 30
     name rthumb
     direction -0.707107 -6.35121e-011 0.707107   
     length 0.847624   
     axis -90 -45 -2.82974e-014   XYZ
    dof rx rz
    limits (-45.0 45.0)
           (-45.0 45.0)
  end
:hierarchy
  begin
    root lhipjoint rhipjoint lowerback
    lhipjoint lfemur
    lfemur ltibia
    ltibia lfoot
    lfoot ltoes
    rhipjoint rfemur
    rfemur rtibia
    rtibia rfoot
    rfoot rtoes
    lowerback upperback
    upperback thorax
    thorax lowerneck lclavicle rclavicle
    lowerneck upperneck
    upperneck head
    lclavicle lhumerus
    lhumerus lradius
    lradius lwrist
    lwrist lhand lthumb
    lhand lfingers
    rclavicle rhumerus
    rhumerus rradius
    rradius rwrist
    rwrist rhand rthumb
    rhand rfingers
  end

#!OML:ASF G:\Work\Work\Patient Classification 1\Elijah\terrain1\Elijah.ASF
:FULLY-SPECIFIED
:DEGREES
93
root 15.814 23.7341 0.179893 7.43868 1.46022 2.05999
lowerback 1.49927 0.307654 -0.0380479
upperback -0.246114 0.40492 -0.427721
thorax -1.08924 0.201286 -0.426225
lowerneck -11.8786 15.4417 10.8609
upperneck 34.8228 26.5975 -14.1672
head 19.0237 10.7987 -2.47346
rclavicle 2.28602e-015 -2.78299e-015
rhumerus -40.3316 -9.28489 -78.4157
rradius 30.4193
rwrist 1.02037
rhand -11.6372 21.5803
rfingers 7.12502
rthumb 14.4066 -7.8997
lclavicle 2.28602e-015 -2.78299e-015
lhumerus -36.2687 32.9851 66.3992
lradius 23.9509
lwrist -2.27877
lhand -14.1129 23.0253
lfingers 7.12502
lthumb 12.0203 52.6601
rfemur -16.8422 -4.33173 23.9111
rtibia 12.5583
rfoot -2.30008 -5.36731
rtoes -2.01961
lfemur -1.60088 3.43097 -22.3087
ltibia 39.0698
lfoot 11.1201 -13.2739
ltoes -6.62744
94
root 15.809 23.7241 0.289995 7.46395 1.37413 1.81697
lowerback 1.53581 0.283175 0.1736
upperback -0.31491 0.379214 -0.154753
thorax -1.1808 0.187756 -0.265282
lowerneck -12.8583 15.4821 9.96293
upperneck 35.4437 26.5966 -13.2306
head 19.2107 10.6865 -1.86795
rclavicle 5.41688e-015 -8.15017e-015
rhumerus -40.0231 -8.79386 -78.3892
rradius 30.513
rwrist 0.872103
rhand -11.9688 21.7178
rfingers 7.12502
rthumb 14.0871 -7.7847
lclavicle 5.41688e-015 -8.15017e-015
lhumerus -36.8524 33.2969 66.2567
lradius 23.9964
lwrist -2.30605
lhand -13.7672 23.6634
lfingers 7.12502
lthumb 12.3536 53.2784
rfemur -16.8231 -4.28733 24.1745
rtibia 13.1939
rfoot -2.83066 -5.16444
rtoes -3.28007
lfemur -2.57851 3.49604 -21.9878
ltibia 41.0526
lfoot 11.9251 -13.3889
ltoes -6.41235
95
root 15.8005 23.7191 0.393729 7.48112 1.49631 1.68496
lowerback 1.55699 0.226738 0.234871
upperback -0.355821 0.308115 0.0867273
thorax -1.23599 0.152549 -0.0508649
lowerneck -11.6626 15.0872 10.3452
upperneck 34.5293 26.075 -14.1972
head 18.5909 10.5697 -2.57546
rclavicle -6.95746e-015 4.37326e-015
rhumerus -39.6091 -8.27018 -78.3943
rradius 30.4876
rwrist 0.424606
rhand -12.1805 21.7527
rfingers 7.12502
rthumb 13.8831 -7.76394
lclavicle -6.95746e-015 4.37326e-015
lhumerus -37.3087 33.6121 66.1072
lradius 23.8903
lwrist -2.34567
lhand -13.3936 24.0689
lfingers 7.12502
lthumb 12.7137 53.6618
rfemur -16.8955 -4.28514 24.2976
rtibia 14.0395
rfoot -3.30791 -5.06375
rtoes -5.09583
lfemur -3.70976 3.33888 -21.7511
ltibia 43.0617
lfoot 12.9469 -13.3819
ltoes -6.28926
96
root 15.793 23.7057 0.490703 7.44868 1.67196 1.63655
lowerback 1.52293 0.253389 0.265533
upperback -0.298091 0.346013 0.263525
thorax -1.1586 0.171997 0.112263
lowerneck -11.5401 14.8729 10.6405
upperneck 34.417 25.6479 -14.2624
head 18.4801 10.4492 -2.76633
rclavicle -1.2424e-015 1.98785e-015
rhumerus -39.3323 -8.05252 -78.2429
rradius 30.659
rwrist 0.00872857
rhand -12.142 21.6479
rfingers 7.12502
rthumb 13.9202 -7.8662
lclavicle -1.2424e-015 1.98785e-015
lhumerus -37.3945 33.1096 66.4873
lradius 23.9073
lwrist -1.71052
lhand -13.4004 23.8082
lfingers 7.12502
lthumb 12.7072 53.4016
rfemur -16.9467 -4.35225 24.3452
rtibia 14.9144
rfoot -4.17086 -5.16972
rtoes -5.04448
lfemur -4.70971 3.18576 -21.6088
ltibia 45.0921
lfoot 13.8493 -13.2988
ltoes -6.54046
97
root 15.7839 23.6834 0.58538 7.29562 1.88533 1.55573
lowerback 1.65985 0.333373 0.530336
upperback -0.132888 0.458123 0.282424
thorax -1.06433 0.226681 -0.0198306
lowerneck -11.1075 15.359 10.6426
upperneck 34.282 26.3331 -14.0564
head 18.3734 10.7882 -2.52073
rclavicle -1.9133e-014 1.59028e-015
rhumerus -39.0861 -8.27827 -78.1842
rradius 30.9593
rwrist -0.100653
rhand -12.3859 21.7194
rfingers 7.12502
rthumb 13.6851 -7.81061
lclavicle -1.9133e-014 1.59028e-015
lhumerus -37.1352 32.5097 66.9156
lradius 23.9531
lwrist -1.43576
lhand -13.3065 24.5054
lfingers 7.12502
lthumb 12.7977 54.0931
rfemur -16.7594 -4.33654 24.4395
rtibia 15.5888
rfoot -4.90598 -5.48388
rtoes -3.99721
lfemur -5.52203 3.06634 -21.4001
ltibia 47.1695
lfoot 14.5544 -13.2144
ltoes -4.8841
98
root 15.7673 23.6666 0.678973 7.09343 2.24651 1.26126
lowerback 2.10768 0.334249 1.05084
upperback -0.0172466 0.474886 0.280945
thorax -1.19269 0.231826 -0.316
lowerneck -14.0935 14.9345 9.54865
upperneck 35.9944 25.327 -12.0218
head 19.2181 10.1734 -1.52679
rclavicle 3.8266e-015 -7.15625e-015
rhumerus -38.7968 -8.64818 -78.3013
rradius 31.1448
rwrist 0.0824983
rhand -12.8666 21.9305
rfingers 7.12502
rthumb 13.2218 -7.63019
lclavicle 3.8266e-015 -7.15625e-015
lhumerus -36.8751 32.5145 66.8707
lradius 23.74
lwrist -1.95612
lhand -12.8982 25.0204
lfingers 7.12502
lthumb 13.1914 54.5831
rfemur -16.4022 -4.24395 24.7868
rtibia 16.109
rfoot -5.64845 -5.98442
rtoes -2.53402
lfemur -6.43066 2.88366 -20.8924
ltibia 49.2895
lfoot 15.3666 -13.0879
ltoes -2.23137
99
root 15.752 23.6606 0.778492 6.80671 2.66351 1.10142
lowerback 2.09055 0.272794 1.02552
upperback 0.20404 0.39287 0.534606
thorax -0.959505 0.193197 -0.0388096
lowerneck -13.4129 14.6072 9.77977
upperneck 35.7541 24.7375 -12.1541
head 18.8679 10.026 -1.83125
rclavicle 5.46658e-016 2.78299e-015
rhumerus -38.4156 -8.68154 -78.1006
rradius 31.3415
rwrist 0.116318
rhand -13.0959 21.7801
rfingers 7.12502
rthumb 13.0008 -7.79484
lclavicle 5.46658e-016 2.78299e-015
lhumerus -36.8603 32.4741 67.1018
lradius 23.5822
lwrist -2.13744
lhand -12.2721 24.5014
lfingers 7.12502
lthumb 13.7948 54.024
rfemur -15.7991 -4.33588 24.9859
rtibia 16.46
rfoot -6.36217 -6.35387
rtoes -1.92711
lfemur -7.28347 2.67606 -20.5517
ltibia 51.3555
lfoot 15.9868 -12.9954
ltoes -4.0319
100
root 15.7394 23.654 0.876982 6.55898 2.89763 1.08402
lowerback 2.32522 0.235736 0.954842
upperback 0.253024 0.345874 0.640417
thorax -1.04229 0.170005 0.109488
lowerneck -13.9477 14.8063 9.55786
upperneck 36.079 24.9677 -11.6682
head 19.0759 10.0912 -1.48152
rclavicle -7.00716e-015 3.18055e-015
rhumerus -38.2522 -8.52858 -78.0821
rradius 31.6857
rwrist -0.314635
rhand -13.1198 21.5055
rfingers 7.12502
rthumb 12.9777 -8.07083
lclavicle -7.00716e-015 3.18055e-015
lhumerus -36.9661 32.4519 67.0057
lradius 23.348
lwrist -2.32101
lhand -11.6701 24.0598
lfingers 7.12502
lthumb 14.3749 53.542
rfemur -15.1706 -4.33245 25.0223
rtibia 16.6109
rfoot -6.94746 -6.57708
rtoes -1.44764
lfemur -8.15109 2.60251 -20.4228
ltibia 53.3187
lfoot 16.3155 -12.8349
ltoes -8.75821
101
root 15.728 23.6443 0.975288 6.36123 3.04791 1.15822
lowerback 2.89661 0.156155 0.739274
upperback 0.0181602 0.245174 0.733026
thorax -1.60497 0.119377 0.326314
lowerneck -12.1589 14.2815 10.8832
upperneck 35.2893 24.1749 -12.8797
head 18.5487 9.97493 -2.5487
rclavicle 1.04362e-015 1.63003e-014
rhumerus -38.695 -7.7583 -78.2802
rradius 32.5331
rwrist -1.16077
rhand -13.0562 20.9573
rfingers 7.12502
rthumb 13.039 -8.6152
lclavicle 1.04362e-015 1.63003e-014
lhumerus -37.648 33.3482 66.0452
lradius 22.8303
lwrist -3.54257
lhand -11.25 24.0738
lfingers 7.12502
lthumb 14.7797 53.5268
rfemur -14.5522 -4.24198 24.9379
rtibia 16.6225
rfoot -7.50589 -6.72408
rtoes 0.0205346
lfemur -8.96485 2.56951 -20.4319
ltibia 55.1679
lfoot 16.3869 -12.3427
ltoes -11.194
102
root 15.7125 23.6404 1.07763 6.08341 3.26227 1.27261
lowerback 2.65546 0.256823 0.647442
upperback 0.469956 0.368247 0.679117
thorax -1.00718 0.182775 0.319642
lowerneck -14.058 14.4094 9.94272
upperneck 36.1746 24.2233 -11.6751
head 19.1066 9.83887 -1.72864
rclavicle -5.71506e-015 5.56597e-015
rhumerus -38.2472 -7.93349 -78.4655
rradius 33.2198
rwrist -1.66288
rhand -13.1677 20.45
rfingers 7.12502
rthumb 12.9315 -9.12928
lclavicle -5.71506e-015 5.56597e-015
lhumerus -36.9387 33.4168 66.2879
lradius 22.7003
lwrist -4.28528
lhand -10.8363 24.7364
lfingers 7.12502
lthumb 15.1782 54.1597
rfemur -13.7806 -4.18307 24.8192
rtibia 16.5647
rfoot -7.96408 -6.94073
rtoes 1.30361
lfemur -9.63196 2.40529 -20.4793
ltibia 56.9542
lfoot 15.9241 -11.4662
ltoes -10.898
103
root 15.6912 23.639 1.17418 5.81495 3.40078 1.00184
lowerback 2.73673 0.197793 0.494551
upperback 0.479048 0.2901 1.02625
thorax -1.04589 0.144666 0.763365
lowerneck -12.0467 13.9707 10.9119
upperneck 35.1888 23.5892 -12.7844
head 18.3285 9.77504 -2.67073
rclavicle 7.55382e-015 -8.74653e-015
rhumerus -38.3098 -7.16783 -78.4659
rradius 33.639
rwrist -2.109
rhand -13.5307 20.4132
rfingers 7.12502
rthumb 12.5816 -9.18794
lclavicle 7.55382e-015 -8.74653e-015
lhumerus -37.5296 33.2331 66.3067
lradius 23.057
lwrist -4.37527
lhand -10.4492 24.8803
lfingers 7.12502
lthumb 15.551 54.275
rfemur -13.0759 -3.99915 25.1793
rtibia 16.4479
rfoot -8.14506 -7.27501
rtoes 0.964663
lfemur -10.4779 2.347 -20.0792
ltibia 58.7725
lfoot 15.0398 -10.6348
ltoes -8.82382
104
root 15.6733 23.6321 1.2646 5.57601 3.46923 0.49086
lowerback 2.98099 0.376872 1.16595
upperback 0.628488 0.550591 1.02128
thorax -1.0257 0.272887 0.371495
lowerneck -13.0712 13.9885 10.3755
upperneck 35.5852 23.4486 -11.9875
head 18.5111 9.65708 -2.20429
rclavicle -1.49089e-015 5.96354e-015
rhumerus -38.0826 -7.58328 -78.6307
rradius 33.9801
rwrist -2.27797
rhand -14.029 20.4118
rfingers 7.12502
rthumb 12.1011 -9.2183
lclavicle -1.49089e-015 5.96354e-015
lhumerus -37.0419 33.1372 66.2833
lradius 22.8626
lwrist -5.09031
lhand -10.0005 24.5129
lfingers 7.12502
lthumb 15.9832 53.8735
rfemur -12.3954 -3.71793 25.8016
rtibia 16.1799
rfoot -8.14098 -7.61805
rtoes -0.0618593
lfemur -11.4298 2.51064 -19.4348
ltibia 60.6176
lfoot 13.86 -10.1625
ltoes -8.00486
105
root 15.6588 23.6263 1.35695 5.40012 3.50683 0.238
lowerback 3.13809 0.429006 1.40412
upperback 0.638781 0.631494 1.07984
thorax -1.10102 0.312379 0.293731
lowerneck -13.6127 13.7569 9.98561
upperneck 36.504 22.9617 -11.0654
head 18.8268 9.44914 -1.838
rclavicle -8.94531e-016 1.39149e-014
rhumerus -37.9127 -7.6324 -78.7327
rradius 34.1749
rwrist -2.12642
rhand -14.4052 20.2096
rfingers 7.12502
rthumb 11.7384 -9.44149
lclavicle -8.94531e-016 1.39149e-014
lhumerus -37.1928 33.3464 65.883
lradius 22.76
lwrist -5.61539
lhand -9.57528 24.1479
lfingers 7.12502
lthumb 16.3926 53.4752
rfemur -11.7128 -3.38544 26.102
rtibia 15.9134
rfoot -8.20301 -7.85564
rtoes -0.367925
lfemur -12.4651 2.73412 -19.1324
ltibia 62.4054
lfoot 12.6851 -9.91579
ltoes -9.91187
106
root 15.6529 23.6297 1.44881 5.35251 3.57971 0.152883
lowerback 3.19168 0.400057 1.4429
upperback 0.554459 0.597811 1.1427
thorax -1.21789 0.294738 0.336987
lowerneck -12.96 13.3956 10.5724
upperneck 36.4058 22.3701 -11.4105
head 18.6759 9.29997 -2.28013
rclavicle 4.57205e-015 0
rhumerus -37.9839 -7.32858 -78.8728
rradius 34.674
rwrist -2.00325
rhand -14.4501 19.6574
rfingers 7.12502
rthumb 11.6951 -9.99613
lclavicle 4.57205e-015 0
lhumerus -37.6253 33.5316 65.4508
lradius 22.8053
lwrist -5.74331
lhand -9.48185 23.9324
lfingers 7.12502
lthumb 16.4826 53.2522
rfemur -11.0734 -3.42942 26.1878
rtibia 15.5459
rfoot -8.35 -7.73427
rtoes -0.0406174
lfemur -13.8214 2.82504 -19.1308
ltibia 64.1087
lfoot 11.4531 -9.75063
ltoes -12.0072
107
root 15.6589 23.6258 1.53616 5.29065 3.92332 0.175584
lowerback 3.57408 0.194287 1.47708
upperback 0.234582 0.340852 1.19622
thorax -1.76148 0.16301 0.381447
lowerneck -12.0611 14.1501 10.9297
upperneck 36.1728 23.8922 -12.1933
head 18.8385 9.92444 -2.34811
rclavicle 5.41688e-015 -1.19271e-015
rhumerus -38.4035 -6.74359 -79.0446
rradius 35.0866
rwrist -2.2291
rhand -14.4766 19.4829
rfingers 7.12502
rthumb 11.6695 -10.1721
lclavicle 5.41688e-015 -1.19271e-015
lhumerus -38.5498 33.6426 64.8506
lradius 23.0334
lwrist -5.58722
lhand -9.62621 23.9572
lfingers 7.12502
lthumb 16.3436 53.2886
rfemur -10.6091 -4.03627 26.1373
rtibia 15.5169
rfoot -8.75359 -7.44546
rtoes 0.250252
lfemur -14.9427 2.51627 -19.3063
ltibia 65.6767
lfoot 10.0206 -9.51567
ltoes -11.3576
